<?xml version="1.0" encoding="UTF-8" standalone="no"?>
<!-- Created with Inkscape (http://www.inkscape.org/) -->

<svg
   xmlns:dc="http://purl.org/dc/elements/1.1/"
   xmlns:cc="http://creativecommons.org/ns#"
   xmlns:rdf="http://www.w3.org/1999/02/22-rdf-syntax-ns#"
   xmlns:svg="http://www.w3.org/2000/svg"
   xmlns="http://www.w3.org/2000/svg"
   xmlns:sodipodi="http://sodipodi.sourceforge.net/DTD/sodipodi-0.dtd"
   xmlns:inkscape="http://www.inkscape.org/namespaces/inkscape"
   version="1.0"
   width="454.99899"
   height="455"
   viewBox="-9.302 -9.782 454.999 455"
   id="Layer_1"
   xml:space="preserve"
   inkscape:version="0.48.0 r9654"
   sodipodi:docname="DIN-5_Diagram.svg"><metadata
   id="metadata13"><rdf:RDF><cc:Work
       rdf:about=""><dc:format>image/svg+xml</dc:format><dc:type
         rdf:resource="http://purl.org/dc/dcmitype/StillImage" /><dc:title></dc:title></cc:Work></rdf:RDF></metadata><sodipodi:namedview
   pagecolor="#ffffff"
   bordercolor="#666666"
   borderopacity="1"
   objecttolerance="10"
   gridtolerance="10"
   guidetolerance="10"
   inkscape:pageopacity="0"
   inkscape:pageshadow="2"
   inkscape:window-width="640"
   inkscape:window-height="814"
   id="namedview11"
   showgrid="false"
   inkscape:zoom="0.57362637"
   inkscape:cx="227.4995"
   inkscape:cy="227.5"
   inkscape:window-x="0"
   inkscape:window-y="0"
   inkscape:window-maximized="0"
   inkscape:current-layer="Layer_1" /><defs
   id="defs4693" />






<g
   id="g2990"
   transform="matrix(-1,0,0,-1,435.393,434.436)"><path
     id="path4678"
     style="fill:#ffffff;stroke:#000000;stroke-width:5"
     d="m 19.197,217.218 c 0,109.631 88.876,198.503 198.499,198.503 109.626,0 198.5,-88.872 198.5,-198.503 0,-109.624 -88.872,-198.503 -198.5,-198.503 -109.623,0 -198.499,88.879 -198.499,198.503 z"
     inkscape:connector-curvature="0" /><path
     id="path4680"
     style="fill:none;stroke:#000000;stroke-width:5"
     d="m 298.979,217.215 c 0,13.893 11.262,25.148 25.15,25.148 13.895,0 25.149,-11.258 25.149,-25.148 0,-13.883 -11.257,-25.146 -25.149,-25.146 -13.89,0.001 -25.15,11.263 -25.15,25.146 z"
     inkscape:connector-curvature="0" /><path
     id="path4682"
     style="fill:none;stroke:#000000;stroke-width:5"
     d="m 86.112,217.215 c 0,13.893 11.262,25.148 25.151,25.148 13.894,0 25.151,-11.258 25.151,-25.148 0,-13.883 -11.257,-25.146 -25.151,-25.146 -13.889,0.001 -25.151,11.263 -25.151,25.146 z"
     inkscape:connector-curvature="0" /><path
     id="path4684"
     style="fill:none;stroke:#000000;stroke-width:5"
     d="m 124.657,124.185 c -9.82,9.82 -9.82,25.746 0.005,35.566 9.821,9.826 25.74,9.826 35.566,0 9.814,-9.815 9.82,-25.741 -0.005,-35.561 -9.821,-9.825 -25.746,-9.825 -35.566,-0.005 z"
     inkscape:connector-curvature="0" /><path
     id="path4686"
     style="fill:none;stroke:#000000;stroke-width:5"
     d="m 217.696,85.657 c -13.888,0 -25.15,11.262 -25.145,25.15 -0.005,13.894 11.251,25.151 25.148,25.151 13.877,0 25.143,-11.257 25.143,-25.151 0,-13.888 -11.257,-25.15 -25.146,-25.15 z"
     inkscape:connector-curvature="0" /><path
     id="path4688"
     style="fill:none;stroke:#000000;stroke-width:5"
     d="m 310.726,124.202 c -9.814,-9.821 -25.745,-9.821 -35.562,0.005 -9.831,9.82 -9.831,25.739 -0.005,35.565 9.815,9.815 25.74,9.821 35.562,-0.005 9.825,-9.821 9.825,-25.746 0.005,-35.565 z"
     inkscape:connector-curvature="0" /><path
     id="path4690"
     style="fill:none;stroke:#000000;stroke-width:5"
     d="m 217.699,35.339 c -100.448,0 -181.883,81.436 -181.883,181.879 0,87.806 62.234,161.079 144.996,178.125 2.492,-18.166 18.038,-32.176 36.89,-32.176 18.838,0 34.386,14.015 36.875,32.182 C 337.342,378.297 399.576,305.024 399.576,217.218 399.574,116.775 318.146,35.339 217.699,35.339 z"
     inkscape:connector-curvature="0" /></g>
<text
   xml:space="preserve"
   style="font-size:12px;font-style:normal;font-variant:normal;font-weight:normal;font-stretch:normal;text-align:start;line-height:125%;letter-spacing:0px;word-spacing:0px;writing-mode:lr-tb;text-anchor:start;fill:#000000;fill-opacity:1;stroke:none;font-family:Sylfaen;-inkscape-font-specification:Sylfaen"
   x="313.20755"
   y="181.98045"
   id="text2999"
   sodipodi:linespacing="125%"><tspan
     sodipodi:role="line"
     id="tspan3001"
     x="313.20755"
     y="181.98045"
     style="font-size:48px">1</tspan></text>
<text
   xml:space="preserve"
   style="font-size:48px;font-style:normal;font-variant:normal;font-weight:normal;font-stretch:normal;text-align:start;line-height:125%;letter-spacing:0px;word-spacing:0px;writing-mode:lr-tb;text-anchor:start;fill:#000000;fill-opacity:1;stroke:none;font-family:Sylfaen;-inkscape-font-specification:Sylfaen"
   x="207.3685"
   y="289.96896"
   id="text3003"
   sodipodi:linespacing="125%"><tspan
     sodipodi:role="line"
     id="tspan3005"
     x="207.3685"
     y="289.96896">2</tspan></text>
<text
   xml:space="preserve"
   style="font-size:48px;font-style:normal;font-variant:normal;font-weight:normal;font-stretch:normal;text-align:start;line-height:125%;letter-spacing:0px;word-spacing:0px;writing-mode:lr-tb;text-anchor:start;fill:#000000;fill-opacity:1;stroke:none;font-family:Sylfaen;-inkscape-font-specification:Sylfaen"
   x="100.26888"
   y="183.26398"
   id="text3007"
   sodipodi:linespacing="125%"><tspan
     sodipodi:role="line"
     id="tspan3009"
     x="100.26888"
     y="183.26398">3</tspan></text>
<text
   xml:space="preserve"
   style="font-size:48px;font-style:normal;font-variant:normal;font-weight:normal;font-stretch:normal;text-align:start;line-height:125%;letter-spacing:0px;word-spacing:0px;writing-mode:lr-tb;text-anchor:start;fill:#000000;fill-opacity:1;stroke:none;font-family:Sylfaen;-inkscape-font-specification:Sylfaen"
   x="260.39532"
   y="262.22568"
   id="text3011"
   sodipodi:linespacing="125%"><tspan
     sodipodi:role="line"
     id="tspan3013"
     x="260.39532"
     y="262.22568">4</tspan></text>
<text
   xml:space="preserve"
   style="font-size:48px;font-style:normal;font-variant:normal;font-weight:normal;font-stretch:normal;text-align:start;line-height:125%;letter-spacing:0px;word-spacing:0px;writing-mode:lr-tb;text-anchor:start;fill:#000000;fill-opacity:1;stroke:none;font-family:Sylfaen;-inkscape-font-specification:Sylfaen"
   x="150.87808"
   y="258.99579"
   id="text3015"
   sodipodi:linespacing="125%"><tspan
     sodipodi:role="line"
     id="tspan3017"
     x="150.87808"
     y="258.99579">5</tspan></text>
</svg>